<?xml version="1.0" standalone="no"?>
<!DOCTYPE svg PUBLIC "-//W3C//DTD SVG 20010904//EN"
 "http://www.w3.org/TR/2001/REC-SVG-20010904/DTD/svg10.dtd">
<svg version="1.0" xmlns="http://www.w3.org/2000/svg"
 width="557.000000pt" height="557.000000pt" viewBox="0 0 557.000000 557.000000"
 preserveAspectRatio="xMidYMid meet">
<metadata>
Created by potrace 1.11, written by Peter Selinger 2001-2013
</metadata>
<g transform="translate(0.000000,557.000000) scale(0.100000,-0.100000)"
fill="#000000" stroke="none">
<path d="M2965 3513 c-79 -17 -190 -65 -262 -114 -98 -67 -205 -195 -249 -296
-55 -129 -69 -201 -67 -335 7 -397 335 -716 738 -719 168 -1 331 56 461 160
53 42 64 47 108 46 57 -1 65 5 153 128 31 42 59 77 63 77 3 0 41 -46 84 -103
l79 -103 67 0 68 0 -114 150 c-86 113 -111 153 -104 165 5 9 54 75 109 146 55
72 101 133 101 138 0 4 -29 7 -64 6 l-63 -2 -78 -103 c-43 -57 -81 -104 -84
-104 -3 0 -15 13 -26 28 -15 21 -20 44 -20 112 -2 102 -10 156 -37 235 -86
250 -284 428 -549 491 -56 14 -246 12 -314 -3z m315 -254 c139 -45 263 -167
311 -306 82 -238 -28 -501 -253 -608 -84 -40 -125 -48 -224 -47 -133 2 -247
52 -345 153 -156 161 -181 418 -59 600 87 131 229 220 360 228 25 2 46 4 48 5
4 5 128 -14 162 -25z m552 -721 c-8 -8 -9 -4 -5 13 4 13 8 18 11 10 2 -7 -1
-18 -6 -23z"/>
<path d="M3003 3192 c-60 -17 -56 -1 -53 -174 l1 -108 -115 0 c-72 0 -117 -4
-122 -11 -11 -18 -9 -193 3 -214 10 -18 22 -20 120 -20 l108 -1 1 -128 c1 -97
5 -130 15 -137 36 -22 201 -41 225 -26 7 4 12 789 5 830 -2 13 -131 5 -188
-11z"/>
<path d="M1880 3223 l0 -223 -165 0 -165 0 0 -43 0 -44 70 2 c42 1 71 -3 73
-9 2 -6 3 -98 2 -203 l-1 -193 26 -1 c29 -2 53 1 59 7 2 2 4 91 4 199 0 107 3
195 6 196 3 1 25 2 49 3 l42 2 0 -393 0 -393 123 0 122 0 0 253 c-1 138 1 259
3 268 3 12 20 15 95 14 l92 -2 0 124 0 123 -95 0 -95 0 0 265 c0 146 -2 266
-5 266 -3 1 -58 2 -122 3 l-118 1 0 -222z"/>
<path d="M5423 3105 c-102 -43 -74 -195 36 -195 30 0 49 7 72 28 83 74 -4 210
-108 167z m98 -34 c54 -54 25 -135 -52 -146 -31 -5 -41 -1 -66 23 -33 34 -38
63 -17 104 28 54 91 63 135 19z"/>
<path d="M5401 3042 c9 -4 15 -18 14 -35 -1 -15 1 -30 5 -32 4 -3 6 9 5 25 -2
20 3 34 14 40 12 7 8 9 -19 9 -21 0 -29 -3 -19 -7z"/>
<path d="M5459 3038 c0 -7 -2 -23 -5 -35 -2 -12 0 -24 5 -28 5 -3 8 6 7 20 -2
13 1 22 5 19 5 -3 9 4 9 15 0 22 -19 30 -21 9z"/>
<path d="M5507 3043 c-4 -3 -7 -15 -7 -25 0 -11 -4 -16 -10 -13 -5 3 -10 0
-10 -8 0 -27 14 -27 27 0 7 16 11 21 9 12 -2 -9 0 -22 5 -30 6 -9 9 0 9 29 0
39 -8 51 -23 35z"/>
<path d="M0 2756 c0 -170 3 -245 11 -248 22 -7 79 4 78 16 -1 6 -1 50 0 99 l1
87 100 0 100 0 0 -102 0 -103 32 2 c18 1 38 2 44 2 9 1 12 69 12 246 l1 245
-45 0 -44 0 0 -100 0 -100 -100 0 -100 0 -1 78 c-1 42 0 87 1 100 1 20 -3 22
-44 22 l-46 0 0 -244z"/>
<path d="M425 2761 c0 -132 3 -243 7 -247 4 -3 71 -7 149 -8 155 -1 158 0 174
64 l6 25 -123 0 -123 0 -3 58 -3 57 105 0 105 0 -13 43 c-13 46 -7 44 -139 46
l-58 1 3 57 3 58 194 0 194 0 23 35 c12 19 23 38 23 43 1 4 -117 7 -262 7
l-262 0 0 -239z"/>
<path d="M976 2938 c-37 -84 -62 -139 -131 -291 -63 -138 -63 -148 -2 -141 34
4 54 24 64 62 3 12 13 22 22 23 9 0 55 1 104 1 48 0 87 3 87 7 -1 3 -9 22 -18
41 -16 34 -20 35 -76 37 -32 2 -61 4 -63 6 -2 2 18 50 44 106 l48 103 79 -179
c44 -98 85 -185 90 -193 11 -15 96 -22 96 -8 0 4 -23 58 -51 120 -28 62 -59
131 -69 153 -10 22 -34 75 -54 118 -20 42 -36 82 -36 87 0 6 -24 10 -53 10
l-53 0 -28 -62z"/>
<path d="M1351 2755 c0 -181 4 -245 12 -246 72 -3 251 -3 257 1 7 5 14 49 11
76 -1 6 -36 10 -93 10 l-93 -1 -3 203 -2 202 -45 0 -44 0 0 -245z"/>
<path d="M4248 2853 c-2 -4 -4 -141 -4 -303 l1 -295 53 0 52 -1 1 56 c0 30 1
165 1 300 l1 245 -51 3 c-28 2 -52 -1 -54 -5z"/>
<path d="M4411 2560 c0 -165 3 -301 7 -301 4 -1 28 -2 55 -3 l47 -1 0 247 c0
229 1 248 18 249 146 8 226 -12 275 -70 108 -128 11 -321 -160 -321 l-54 0
-19 -46 c-11 -25 -18 -49 -15 -53 2 -5 42 -7 89 -5 138 4 237 67 289 183 31
70 29 172 -6 242 -34 71 -91 125 -160 153 -49 20 -75 23 -211 24 l-155 2 0
-300z"/>
<path d="M5019 2856 c-5 -3 -4 -596 1 -597 3 -1 94 -2 203 -3 192 -2 197 -1
198 19 0 11 1 35 2 53 l2 32 -152 0 -153 0 0 70 0 70 88 1 c48 1 101 0 118 -1
41 -2 46 7 30 61 l-13 44 -94 2 c-52 1 -102 2 -111 2 -15 1 -18 11 -18 71 0
60 3 70 18 71 9 0 73 0 141 0 69 0 130 4 136 9 6 5 10 22 9 37 -1 15 -3 36 -3
46 -1 16 -16 17 -201 16 -110 -1 -201 -2 -201 -3z"/>
</g>
</svg>
